<svg xmlns="http://www.w3.org/2000/svg" viewBox="0 0 64 64" width="64" height="64">
  <defs>
    <linearGradient id="coffeeGrad" x1="0%" y1="0%" x2="100%" y2="100%">
      <stop offset="0%" style="stop-color:#4E342E;stop-opacity:1" />
      <stop offset="100%" style="stop-color:#6D4C41;stop-opacity:1" />
    </linearGradient>
  </defs>
  
  <!-- Background circle -->
  <circle cx="32" cy="32" r="30" fill="url(#coffeeGrad)" />
  
  <!-- Coffee Cup -->
  <g transform="translate(14, 14)">
    <!-- Cup body -->
    <path d="M4 12 L4 28 Q4 34 10 34 L26 34 Q32 34 32 28 L32 12 Z" fill="#F5EFE6" />
    <!-- Cup handle -->
    <path d="M32 16 Q40 16 40 22 Q40 28 32 28" stroke="#F5EFE6" stroke-width="3" fill="none" />
    <!-- Coffee liquid -->
    <path d="M8 16 L8 26 Q8 30 12 30 L24 30 Q28 30 28 26 L28 16 Z" fill="#C9A24D" />
    <!-- Steam -->
    <path d="M12 8 Q14 4 12 0" stroke="#C9A24D" stroke-width="2" fill="none" stroke-linecap="round" />
    <path d="M18 6 Q20 2 18 -2" stroke="#C9A24D" stroke-width="2" fill="none" stroke-linecap="round" />
    <path d="M24 8 Q26 4 24 0" stroke="#C9A24D" stroke-width="2" fill="none" stroke-linecap="round" />
  </g>
</svg>
